<?xml version="1.0" encoding="UTF-8" standalone="no"?>
<!DOCTYPE svg PUBLIC "-//W3C//DTD SVG 1.1//EN"
 "http://www.w3.org/Graphics/SVG/1.1/DTD/svg11.dtd">
<!-- Generated by graphviz version 13.1.2 (20250808.2320)
 -->
<!-- Title: finite_state_machine Pages: 1 -->
<svg width="2226pt" height="690pt"
 viewBox="0.00 0.00 2226.00 690.00" xmlns="http://www.w3.org/2000/svg" xmlns:xlink="http://www.w3.org/1999/xlink">
<g id="graph0" class="graph" transform="scale(1 1) rotate(0) translate(4 686)">
<title>finite_state_machine</title>
<polygon fill="white" stroke="none" points="-4,4 -4,-686 2222.34,-686 2222.34,4 -4,4"/>
<!-- 12 -->
<g id="node1" class="node">
<title>12</title>
<ellipse fill="none" stroke="black" cx="540" cy="-285" rx="20.15" ry="20.15"/>
<ellipse fill="none" stroke="black" cx="540" cy="-285" rx="24.15" ry="24.15"/>
<text xml:space="preserve" text-anchor="middle" x="540" y="-279.2" font-family="Helvetica,Arial,sans-serif" font-size="14.00">12</text>
</g>
<!-- 13 -->
<g id="node2" class="node">
<title>13</title>
<ellipse fill="none" stroke="black" cx="661.65" cy="-512" rx="20.15" ry="20.15"/>
<ellipse fill="none" stroke="black" cx="661.65" cy="-512" rx="24.15" ry="24.15"/>
<text xml:space="preserve" text-anchor="middle" x="661.65" y="-506.2" font-family="Helvetica,Arial,sans-serif" font-size="14.00">13</text>
</g>
<!-- 12&#45;&gt;13 -->
<g id="edge22" class="edge">
<title>12&#45;&gt;13</title>
<path fill="none" stroke="black" d="M560.36,-298.56C578.28,-312.12 604.38,-334.56 619.5,-360 641.15,-396.42 651.66,-444.45 656.59,-476.68"/>
<polygon fill="black" stroke="black" points="653.09,-476.88 657.96,-486.29 660.02,-475.9 653.09,-476.88"/>
<text xml:space="preserve" text-anchor="middle" x="602.25" y="-361.7" font-family="Helvetica,Arial,sans-serif" font-size="14.00">zuid</text>
</g>
<!-- 9 -->
<g id="node27" class="node">
<title>9</title>
<polygon fill="none" stroke="black" points="1450.34,-301 1396.34,-301 1396.34,-265 1450.34,-265 1450.34,-301"/>
<text xml:space="preserve" text-anchor="middle" x="1423.34" y="-277.2" font-family="Helvetica,Arial,sans-serif" font-size="14.00">9</text>
</g>
<!-- 12&#45;&gt;9 -->
<g id="edge21" class="edge">
<title>12&#45;&gt;9</title>
<path fill="none" stroke="black" d="M561.45,-273.36C584.71,-261.24 624.2,-244 660.65,-244 660.65,-244 660.65,-244 1299.84,-244 1329.65,-244 1361.69,-254.61 1385.53,-264.77"/>
<polygon fill="black" stroke="black" points="1383.93,-267.88 1394.48,-268.75 1386.77,-261.49 1383.93,-267.88"/>
<text xml:space="preserve" text-anchor="middle" x="957.59" y="-245.7" font-family="Helvetica,Arial,sans-serif" font-size="14.00">uit</text>
</g>
<!-- 13&#45;&gt;12 -->
<g id="edge23" class="edge">
<title>13&#45;&gt;12</title>
<path fill="none" stroke="black" d="M648.79,-491.29C633.61,-464.61 606.69,-416.7 585,-375 575.03,-355.83 564.38,-334.08 556.05,-316.76"/>
<polygon fill="black" stroke="black" points="559.32,-315.48 551.85,-307.97 553.01,-318.5 559.32,-315.48"/>
<text xml:space="preserve" text-anchor="middle" x="602.25" y="-437.2" font-family="Helvetica,Arial,sans-serif" font-size="14.00">noord</text>
</g>
<!-- 14 -->
<g id="node3" class="node">
<title>14</title>
<ellipse fill="none" stroke="black" cx="1019.84" cy="-566" rx="20.15" ry="20.15"/>
<ellipse fill="none" stroke="black" cx="1019.84" cy="-566" rx="24.15" ry="24.15"/>
<text xml:space="preserve" text-anchor="middle" x="1019.84" y="-560.2" font-family="Helvetica,Arial,sans-serif" font-size="14.00">14</text>
</g>
<!-- 13&#45;&gt;14 -->
<g id="edge24" class="edge">
<title>13&#45;&gt;14</title>
<path fill="none" stroke="black" d="M684.1,-521.51C690.35,-523.96 697.25,-526.36 703.8,-528 803.79,-553.05 925.91,-561.78 984.4,-564.67"/>
<polygon fill="black" stroke="black" points="983.89,-568.15 994.04,-565.11 984.22,-561.15 983.89,-568.15"/>
<text xml:space="preserve" text-anchor="middle" x="836.47" y="-555.04" font-family="Helvetica,Arial,sans-serif" font-size="14.00">oost</text>
</g>
<!-- 17 -->
<g id="node5" class="node">
<title>17</title>
<ellipse fill="none" stroke="black" cx="780.44" cy="-467" rx="20.15" ry="20.15"/>
<ellipse fill="none" stroke="black" cx="780.44" cy="-467" rx="24.15" ry="24.15"/>
<text xml:space="preserve" text-anchor="middle" x="780.44" y="-461.2" font-family="Helvetica,Arial,sans-serif" font-size="14.00">17</text>
</g>
<!-- 13&#45;&gt;17 -->
<g id="edge25" class="edge">
<title>13&#45;&gt;17</title>
<path fill="none" stroke="black" d="M681.03,-497.31C687.86,-492.46 695.87,-487.44 703.8,-484 716.79,-478.37 731.87,-474.49 745.14,-471.88"/>
<polygon fill="black" stroke="black" points="745.51,-475.37 754.74,-470.17 744.28,-468.48 745.51,-475.37"/>
<text xml:space="preserve" text-anchor="middle" x="721.05" y="-485.7" font-family="Helvetica,Arial,sans-serif" font-size="14.00">zuid</text>
</g>
<!-- 14&#45;&gt;13 -->
<g id="edge26" class="edge">
<title>14&#45;&gt;13</title>
<path fill="none" stroke="black" d="M996.21,-572.79C989.4,-574.52 981.88,-576.13 974.84,-577 959.62,-578.87 955.67,-577.52 940.34,-577 858.16,-574.21 836.98,-573.9 756.3,-558 732.81,-553.37 725.27,-556.58 703.8,-546 698.43,-543.36 693.15,-539.88 688.25,-536.16"/>
<polygon fill="black" stroke="black" points="690.51,-533.49 680.57,-529.83 686.06,-538.89 690.51,-533.49"/>
<text xml:space="preserve" text-anchor="middle" x="836.47" y="-574.33" font-family="Helvetica,Arial,sans-serif" font-size="14.00">west</text>
</g>
<!-- 15 -->
<g id="node4" class="node">
<title>15</title>
<ellipse fill="none" stroke="black" cx="1159.34" cy="-596" rx="20.15" ry="20.15"/>
<ellipse fill="none" stroke="black" cx="1159.34" cy="-596" rx="24.15" ry="24.15"/>
<text xml:space="preserve" text-anchor="middle" x="1159.34" y="-590.2" font-family="Helvetica,Arial,sans-serif" font-size="14.00">15</text>
</g>
<!-- 14&#45;&gt;15 -->
<g id="edge27" class="edge">
<title>14&#45;&gt;15</title>
<path fill="none" stroke="black" d="M1044.08,-562.26C1063.35,-560.04 1091.23,-558.87 1114.34,-566 1120.31,-567.84 1126.18,-570.79 1131.61,-574.15"/>
<polygon fill="black" stroke="black" points="1129.32,-576.83 1139.55,-579.61 1133.29,-571.06 1129.32,-576.83"/>
<text xml:space="preserve" text-anchor="middle" x="1089.59" y="-567.7" font-family="Helvetica,Arial,sans-serif" font-size="14.00">oost</text>
</g>
<!-- 16 -->
<g id="node6" class="node">
<title>16</title>
<ellipse fill="none" stroke="black" cx="895.34" cy="-498" rx="20.15" ry="20.15"/>
<ellipse fill="none" stroke="black" cx="895.34" cy="-498" rx="24.15" ry="24.15"/>
<text xml:space="preserve" text-anchor="middle" x="895.34" y="-492.2" font-family="Helvetica,Arial,sans-serif" font-size="14.00">16</text>
</g>
<!-- 14&#45;&gt;16 -->
<g id="edge28" class="edge">
<title>14&#45;&gt;16</title>
<path fill="none" stroke="black" d="M1007.74,-544.67C998.07,-527.05 984.18,-504.12 974.84,-499 961.54,-491.71 944.98,-490.57 930.5,-491.61"/>
<polygon fill="black" stroke="black" points="930.49,-488.09 920.94,-492.67 931.26,-495.05 930.49,-488.09"/>
<text xml:space="preserve" text-anchor="middle" x="957.59" y="-500.7" font-family="Helvetica,Arial,sans-serif" font-size="14.00">zuid</text>
</g>
<!-- 15&#45;&gt;14 -->
<g id="edge29" class="edge">
<title>15&#45;&gt;14</title>
<path fill="none" stroke="black" d="M1135.07,-593.38C1116.02,-590.97 1088.45,-586.87 1064.84,-581 1061.24,-580.1 1057.51,-579.05 1053.82,-577.91"/>
<polygon fill="black" stroke="black" points="1055.04,-574.63 1044.45,-574.84 1052.86,-581.28 1055.04,-574.63"/>
<text xml:space="preserve" text-anchor="middle" x="1089.59" y="-592" font-family="Helvetica,Arial,sans-serif" font-size="14.00">west</text>
</g>
<!-- 17&#45;&gt;13 -->
<g id="edge33" class="edge">
<title>17&#45;&gt;13</title>
<path fill="none" stroke="black" d="M762.26,-483.43C755.31,-489.21 746.91,-495.2 738.3,-499 725.47,-504.66 710.42,-507.86 697.13,-509.67"/>
<polygon fill="black" stroke="black" points="697.05,-506.16 687.51,-510.76 697.84,-513.11 697.05,-506.16"/>
<text xml:space="preserve" text-anchor="middle" x="721.05" y="-510.31" font-family="Helvetica,Arial,sans-serif" font-size="14.00">noord</text>
</g>
<!-- 17&#45;&gt;16 -->
<g id="edge34" class="edge">
<title>17&#45;&gt;16</title>
<path fill="none" stroke="black" d="M802.99,-476.15C809.24,-478.59 816.13,-481.08 822.59,-483 834.7,-486.59 848.21,-489.66 860.21,-492.06"/>
<polygon fill="black" stroke="black" points="859.19,-495.43 869.67,-493.87 860.51,-488.55 859.19,-495.43"/>
<text xml:space="preserve" text-anchor="middle" x="836.47" y="-491.61" font-family="Helvetica,Arial,sans-serif" font-size="14.00">oost</text>
</g>
<!-- 1 -->
<g id="node19" class="node">
<title>1</title>
<polygon fill="none" stroke="black" points="922.34,-409 868.34,-409 868.34,-373 922.34,-373 922.34,-409"/>
<text xml:space="preserve" text-anchor="middle" x="895.34" y="-385.2" font-family="Helvetica,Arial,sans-serif" font-size="14.00">1</text>
</g>
<!-- 17&#45;&gt;1 -->
<g id="edge32" class="edge">
<title>17&#45;&gt;1</title>
<path fill="none" stroke="black" d="M787.42,-443.55C793.24,-426 804.01,-403.18 822.59,-392 832.68,-385.93 845.1,-384.21 856.75,-384.45"/>
<polygon fill="black" stroke="black" points="856.3,-387.92 866.52,-385.15 856.8,-380.94 856.3,-387.92"/>
<text xml:space="preserve" text-anchor="middle" x="836.47" y="-393.7" font-family="Helvetica,Arial,sans-serif" font-size="14.00">uit</text>
</g>
<!-- 16&#45;&gt;14 -->
<g id="edge30" class="edge">
<title>16&#45;&gt;14</title>
<path fill="none" stroke="black" d="M917.7,-507.75C933.7,-515.25 955.98,-526.15 974.84,-537 979.87,-539.89 985.1,-543.13 990.13,-546.36"/>
<polygon fill="black" stroke="black" points="987.91,-549.09 998.19,-551.66 991.75,-543.24 987.91,-549.09"/>
<text xml:space="preserve" text-anchor="middle" x="957.59" y="-538.7" font-family="Helvetica,Arial,sans-serif" font-size="14.00">noord</text>
</g>
<!-- 16&#45;&gt;17 -->
<g id="edge31" class="edge">
<title>16&#45;&gt;17</title>
<path fill="none" stroke="black" d="M876.77,-482.53C869.18,-476.82 859.86,-471.01 850.34,-468 839.42,-464.54 827.03,-463.53 815.8,-463.62"/>
<polygon fill="black" stroke="black" points="816,-460.11 806.14,-464 816.27,-467.11 816,-460.11"/>
<text xml:space="preserve" text-anchor="middle" x="836.47" y="-469.7" font-family="Helvetica,Arial,sans-serif" font-size="14.00">west</text>
</g>
<!-- 20 -->
<g id="node7" class="node">
<title>20</title>
<ellipse fill="none" stroke="black" cx="1019.84" cy="-484" rx="20.15" ry="20.15"/>
<ellipse fill="none" stroke="black" cx="1019.84" cy="-484" rx="24.15" ry="24.15"/>
<text xml:space="preserve" text-anchor="middle" x="1019.84" y="-478.2" font-family="Helvetica,Arial,sans-serif" font-size="14.00">20</text>
</g>
<!-- 16&#45;&gt;20 -->
<g id="edge76" class="edge">
<title>16&#45;&gt;20</title>
<path fill="none" stroke="black" d="M912.07,-480.07C919.76,-472.66 929.65,-464.9 940.34,-461 954.75,-455.75 959.95,-457.34 974.84,-461 979.55,-462.16 984.32,-463.92 988.88,-465.96"/>
<polygon fill="black" stroke="black" points="987.21,-469.03 997.71,-470.4 990.35,-462.78 987.21,-469.03"/>
<text xml:space="preserve" text-anchor="middle" x="957.59" y="-462.7" font-family="Helvetica,Arial,sans-serif" font-size="14.00">deur</text>
</g>
<!-- 19 -->
<g id="node8" class="node">
<title>19</title>
<ellipse fill="none" stroke="black" cx="1159.34" cy="-522" rx="20.15" ry="20.15"/>
<ellipse fill="none" stroke="black" cx="1159.34" cy="-522" rx="24.15" ry="24.15"/>
<text xml:space="preserve" text-anchor="middle" x="1159.34" y="-516.2" font-family="Helvetica,Arial,sans-serif" font-size="14.00">19</text>
</g>
<!-- 20&#45;&gt;19 -->
<g id="edge38" class="edge">
<title>20&#45;&gt;19</title>
<path fill="none" stroke="black" d="M1043.61,-478.37C1063.09,-474.67 1091.52,-472.02 1114.34,-481 1122.22,-484.1 1129.53,-489.36 1135.83,-495.09"/>
<polygon fill="black" stroke="black" points="1133.15,-497.36 1142.7,-501.97 1138.11,-492.41 1133.15,-497.36"/>
<text xml:space="preserve" text-anchor="middle" x="1089.59" y="-482.7" font-family="Helvetica,Arial,sans-serif" font-size="14.00">omlaag</text>
</g>
<!-- 19&#45;&gt;20 -->
<g id="edge37" class="edge">
<title>19&#45;&gt;20</title>
<path fill="none" stroke="black" d="M1135.47,-517.41C1116.42,-513.39 1088.65,-507.1 1064.84,-500 1061.07,-498.87 1057.14,-497.6 1053.27,-496.28"/>
<polygon fill="black" stroke="black" points="1054.63,-493.05 1044.03,-493 1052.28,-499.64 1054.63,-493.05"/>
<text xml:space="preserve" text-anchor="middle" x="1089.59" y="-514.16" font-family="Helvetica,Arial,sans-serif" font-size="14.00">omhoog</text>
</g>
<!-- 18 -->
<g id="node9" class="node">
<title>18</title>
<ellipse fill="none" stroke="black" cx="1298.84" cy="-560" rx="20.15" ry="20.15"/>
<ellipse fill="none" stroke="black" cx="1298.84" cy="-560" rx="24.15" ry="24.15"/>
<text xml:space="preserve" text-anchor="middle" x="1298.84" y="-554.2" font-family="Helvetica,Arial,sans-serif" font-size="14.00">18</text>
</g>
<!-- 19&#45;&gt;18 -->
<g id="edge36" class="edge">
<title>19&#45;&gt;18</title>
<path fill="none" stroke="black" d="M1182.11,-530.49C1189.14,-533.08 1197.02,-535.82 1204.34,-538 1223.87,-543.83 1246.07,-549.1 1263.93,-553.03"/>
<polygon fill="black" stroke="black" points="1262.98,-556.41 1273.49,-555.09 1264.45,-549.56 1262.98,-556.41"/>
<text xml:space="preserve" text-anchor="middle" x="1229.09" y="-552.16" font-family="Helvetica,Arial,sans-serif" font-size="14.00">west</text>
</g>
<!-- 18&#45;&gt;19 -->
<g id="edge35" class="edge">
<title>18&#45;&gt;19</title>
<path fill="none" stroke="black" d="M1282.1,-542.13C1274.4,-534.72 1264.51,-526.95 1253.84,-523 1235.11,-516.06 1212.79,-515.56 1194.65,-516.91"/>
<polygon fill="black" stroke="black" points="1194.53,-513.41 1184.92,-517.87 1195.22,-520.37 1194.53,-513.41"/>
<text xml:space="preserve" text-anchor="middle" x="1229.09" y="-524.7" font-family="Helvetica,Arial,sans-serif" font-size="14.00">oost</text>
</g>
<!-- 34 -->
<g id="node10" class="node">
<title>34</title>
<polygon fill="none" stroke="black" points="1950.59,-358.56 1923.59,-371 1896.59,-358.56 1906.91,-338.44 1940.28,-338.44 1950.59,-358.56"/>
<text xml:space="preserve" text-anchor="middle" x="1923.59" y="-347.2" font-family="Helvetica,Arial,sans-serif" font-size="14.00">34</text>
</g>
<!-- 35 -->
<g id="node11" class="node">
<title>35</title>
<polygon fill="none" stroke="black" points="2114.09,-358.56 2087.09,-371 2060.09,-358.56 2070.41,-338.44 2103.78,-338.44 2114.09,-358.56"/>
<text xml:space="preserve" text-anchor="middle" x="2087.09" y="-347.2" font-family="Helvetica,Arial,sans-serif" font-size="14.00">35</text>
</g>
<!-- 34&#45;&gt;35 -->
<g id="edge74" class="edge">
<title>34&#45;&gt;35</title>
<path fill="none" stroke="black" d="M1948.08,-353C1975.23,-353 2020.17,-353 2051.37,-353"/>
<polygon fill="black" stroke="black" points="2051.07,-356.5 2061.07,-353 2051.07,-349.5 2051.07,-356.5"/>
<text xml:space="preserve" text-anchor="middle" x="2005.34" y="-354.7" font-family="Helvetica,Arial,sans-serif" font-size="14.00">ballon varen</text>
</g>
<!-- 8 -->
<g id="node26" class="node">
<title>8</title>
<polygon fill="none" stroke="black" points="1810.34,-371 1756.34,-371 1756.34,-335 1810.34,-335 1810.34,-371"/>
<text xml:space="preserve" text-anchor="middle" x="1783.34" y="-347.2" font-family="Helvetica,Arial,sans-serif" font-size="14.00">8</text>
</g>
<!-- 34&#45;&gt;8 -->
<g id="edge65" class="edge">
<title>34&#45;&gt;8</title>
<path fill="none" stroke="black" d="M1903.82,-343.44C1896.2,-340.06 1887.18,-336.69 1878.59,-335 1856.68,-330.69 1850.26,-330.69 1828.34,-335 1826.16,-335.43 1823.94,-335.97 1821.73,-336.59"/>
<polygon fill="black" stroke="black" points="1820.63,-333.27 1812.26,-339.77 1822.85,-339.91 1820.63,-333.27"/>
<text xml:space="preserve" text-anchor="middle" x="1853.47" y="-336.7" font-family="Helvetica,Arial,sans-serif" font-size="14.00">uit</text>
</g>
<!-- 35&#45;&gt;34 -->
<g id="edge75" class="edge">
<title>35&#45;&gt;34</title>
<path fill="none" stroke="black" d="M2067.8,-343.12C2060.1,-339.48 2050.89,-335.82 2042.09,-334 2010.1,-327.39 2000.58,-327.39 1968.59,-334 1963.51,-335.05 1958.28,-336.72 1953.29,-338.64"/>
<polygon fill="black" stroke="black" points="1952.08,-335.35 1944.27,-342.52 1954.84,-341.79 1952.08,-335.35"/>
<text xml:space="preserve" text-anchor="middle" x="2005.34" y="-335.7" font-family="Helvetica,Arial,sans-serif" font-size="14.00">ballon varen</text>
</g>
<!-- 36 -->
<g id="node31" class="node">
<title>36</title>
<polygon fill="none" stroke="black" points="2218.34,-336 2164.34,-336 2164.34,-300 2218.34,-300 2218.34,-336"/>
<text xml:space="preserve" text-anchor="middle" x="2191.34" y="-312.2" font-family="Helvetica,Arial,sans-serif" font-size="14.00">36</text>
</g>
<!-- 35&#45;&gt;36 -->
<g id="edge66" class="edge">
<title>35&#45;&gt;36</title>
<path fill="none" stroke="black" d="M2107.81,-346.25C2120.7,-341.84 2137.93,-335.94 2153.32,-330.67"/>
<polygon fill="black" stroke="black" points="2154.35,-334.02 2162.68,-327.47 2152.08,-327.4 2154.35,-334.02"/>
<text xml:space="preserve" text-anchor="middle" x="2139.22" y="-339.3" font-family="Helvetica,Arial,sans-serif" font-size="14.00">uit</text>
</g>
<!-- 21 -->
<g id="node12" class="node">
<title>21</title>
<polygon fill="none" stroke="black" points="567,-504.54 567,-519.46 551.18,-530 528.82,-530 513,-519.46 513,-504.54 528.82,-494 551.18,-494 567,-504.54"/>
<text xml:space="preserve" text-anchor="middle" x="540" y="-506.2" font-family="Helvetica,Arial,sans-serif" font-size="14.00">21</text>
</g>
<!-- 21&#45;&gt;13 -->
<g id="edge39" class="edge">
<title>21&#45;&gt;13</title>
<path fill="none" stroke="black" d="M567.26,-512C584.49,-512 607.23,-512 625.95,-512"/>
<polygon fill="black" stroke="black" points="625.77,-515.5 635.77,-512 625.77,-508.5 625.77,-515.5"/>
<text xml:space="preserve" text-anchor="middle" x="602.25" y="-513.7" font-family="Helvetica,Arial,sans-serif" font-size="14.00">uit</text>
</g>
<!-- 22 -->
<g id="node18" class="node">
<title>22</title>
<polygon fill="none" stroke="black" points="442.5,-514.54 442.5,-529.46 426.68,-540 404.32,-540 388.5,-529.46 388.5,-514.54 404.32,-504 426.68,-504 442.5,-514.54"/>
<text xml:space="preserve" text-anchor="middle" x="415.5" y="-516.2" font-family="Helvetica,Arial,sans-serif" font-size="14.00">22</text>
</g>
<!-- 21&#45;&gt;22 -->
<g id="edge40" class="edge">
<title>21&#45;&gt;22</title>
<path fill="none" stroke="black" d="M512.76,-514.14C495.66,-515.54 473.06,-517.38 454.06,-518.93"/>
<polygon fill="black" stroke="black" points="453.97,-515.43 444.29,-519.73 454.54,-522.41 453.97,-515.43"/>
<text xml:space="preserve" text-anchor="middle" x="477.75" y="-519.89" font-family="Helvetica,Arial,sans-serif" font-size="14.00">zuid</text>
</g>
<!-- 27 -->
<g id="node13" class="node">
<title>27</title>
<polygon fill="none" stroke="black" points="193.5,-650.54 193.5,-665.46 177.68,-676 155.32,-676 139.5,-665.46 139.5,-650.54 155.32,-640 177.68,-640 193.5,-650.54"/>
<text xml:space="preserve" text-anchor="middle" x="166.5" y="-652.2" font-family="Helvetica,Arial,sans-serif" font-size="14.00">27</text>
</g>
<!-- 27&#45;&gt;18 -->
<g id="edge53" class="edge">
<title>27&#45;&gt;18</title>
<path fill="none" stroke="black" d="M193.74,-661.05C218.52,-663.66 256.73,-667 290,-667 290,-667 290,-667 1160.34,-667 1211.06,-667 1254.32,-621.11 1278.14,-589.43"/>
<polygon fill="black" stroke="black" points="1280.96,-591.5 1284,-581.35 1275.3,-587.39 1280.96,-591.5"/>
<text xml:space="preserve" text-anchor="middle" x="721.05" y="-668.7" font-family="Helvetica,Arial,sans-serif" font-size="14.00">uit</text>
</g>
<!-- 26 -->
<g id="node14" class="node">
<title>26</title>
<polygon fill="none" stroke="black" points="54,-574.54 54,-589.46 38.18,-600 15.82,-600 0,-589.46 0,-574.54 15.82,-564 38.18,-564 54,-574.54"/>
<text xml:space="preserve" text-anchor="middle" x="27" y="-576.2" font-family="Helvetica,Arial,sans-serif" font-size="14.00">26</text>
</g>
<!-- 27&#45;&gt;26 -->
<g id="edge54" class="edge">
<title>27&#45;&gt;26</title>
<path fill="none" stroke="black" d="M151.64,-642.38C143.52,-633.96 132.69,-623.92 121.5,-617 118.79,-615.32 88.36,-604.03 62.94,-594.72"/>
<polygon fill="black" stroke="black" points="64.47,-591.55 53.87,-591.4 62.06,-598.13 64.47,-591.55"/>
<text xml:space="preserve" text-anchor="middle" x="96.75" y="-618.7" font-family="Helvetica,Arial,sans-serif" font-size="14.00">omhoog</text>
</g>
<!-- 26&#45;&gt;17 -->
<g id="edge50" class="edge">
<title>26&#45;&gt;17</title>
<path fill="none" stroke="black" d="M36.43,-563.65C54.5,-527.38 100.64,-450 165.5,-450 165.5,-450 165.5,-450 662.65,-450 690.87,-450 722.53,-454.92 745.76,-459.47"/>
<polygon fill="black" stroke="black" points="744.78,-462.84 755.28,-461.41 746.18,-455.98 744.78,-462.84"/>
<text xml:space="preserve" text-anchor="middle" x="415.5" y="-451.7" font-family="Helvetica,Arial,sans-serif" font-size="14.00">uit</text>
</g>
<!-- 26&#45;&gt;27 -->
<g id="edge51" class="edge">
<title>26&#45;&gt;27</title>
<path fill="none" stroke="black" d="M38.41,-600.2C46.17,-612.15 57.85,-627.15 72,-636 88.7,-646.45 109.89,-651.94 127.88,-654.82"/>
<polygon fill="black" stroke="black" points="127.28,-658.27 137.66,-656.16 128.23,-651.34 127.28,-658.27"/>
<text xml:space="preserve" text-anchor="middle" x="96.75" y="-655.23" font-family="Helvetica,Arial,sans-serif" font-size="14.00">omlaag</text>
</g>
<!-- 25 -->
<g id="node15" class="node">
<title>25</title>
<polygon fill="none" stroke="black" points="193.5,-570.54 193.5,-585.46 177.68,-596 155.32,-596 139.5,-585.46 139.5,-570.54 155.32,-560 177.68,-560 193.5,-570.54"/>
<text xml:space="preserve" text-anchor="middle" x="166.5" y="-572.2" font-family="Helvetica,Arial,sans-serif" font-size="14.00">25</text>
</g>
<!-- 26&#45;&gt;25 -->
<g id="edge52" class="edge">
<title>26&#45;&gt;25</title>
<path fill="none" stroke="black" d="M47.41,-569.87C54.81,-565.9 63.52,-562 72,-560 93.41,-554.95 99.91,-555.76 121.5,-560 125.43,-560.77 129.44,-561.9 133.37,-563.21"/>
<polygon fill="black" stroke="black" points="132.08,-566.47 142.67,-566.76 134.57,-559.93 132.08,-566.47"/>
<text xml:space="preserve" text-anchor="middle" x="96.75" y="-561.7" font-family="Helvetica,Arial,sans-serif" font-size="14.00">oost</text>
</g>
<!-- 25&#45;&gt;26 -->
<g id="edge49" class="edge">
<title>25&#45;&gt;26</title>
<path fill="none" stroke="black" d="M139.41,-578.76C118.51,-579.37 88.9,-580.23 65.47,-580.91"/>
<polygon fill="black" stroke="black" points="65.59,-577.4 55.7,-581.19 65.8,-584.4 65.59,-577.4"/>
<text xml:space="preserve" text-anchor="middle" x="96.75" y="-582.41" font-family="Helvetica,Arial,sans-serif" font-size="14.00">west</text>
</g>
<!-- 23 -->
<g id="node16" class="node">
<title>23</title>
<polygon fill="none" stroke="black" points="318,-553.54 318,-568.46 302.18,-579 279.82,-579 264,-568.46 264,-553.54 279.82,-543 302.18,-543 318,-553.54"/>
<text xml:space="preserve" text-anchor="middle" x="291" y="-555.2" font-family="Helvetica,Arial,sans-serif" font-size="14.00">23</text>
</g>
<!-- 25&#45;&gt;23 -->
<g id="edge48" class="edge">
<title>25&#45;&gt;23</title>
<path fill="none" stroke="black" d="M193.87,-579.3C209.2,-579.57 228.82,-579.07 246,-576 249.2,-575.43 252.49,-574.66 255.75,-573.78"/>
<polygon fill="black" stroke="black" points="256.62,-577.17 265.15,-570.89 254.57,-570.48 256.62,-577.17"/>
<text xml:space="preserve" text-anchor="middle" x="228.75" y="-580.91" font-family="Helvetica,Arial,sans-serif" font-size="14.00">noord</text>
</g>
<!-- 23&#45;&gt;25 -->
<g id="edge45" class="edge">
<title>23&#45;&gt;25</title>
<path fill="none" stroke="black" d="M263.61,-558.6C248.27,-557.8 228.65,-557.8 211.5,-561 207.88,-561.68 204.17,-562.64 200.52,-563.77"/>
<polygon fill="black" stroke="black" points="199.56,-560.39 191.3,-567.03 201.89,-566.99 199.56,-560.39"/>
<text xml:space="preserve" text-anchor="middle" x="228.75" y="-562.7" font-family="Helvetica,Arial,sans-serif" font-size="14.00">zuid</text>
</g>
<!-- 24 -->
<g id="node17" class="node">
<title>24</title>
<polygon fill="none" stroke="black" points="442.5,-613.54 442.5,-628.46 426.68,-639 404.32,-639 388.5,-628.46 388.5,-613.54 404.32,-603 426.68,-603 442.5,-613.54"/>
<text xml:space="preserve" text-anchor="middle" x="415.5" y="-615.2" font-family="Helvetica,Arial,sans-serif" font-size="14.00">24</text>
</g>
<!-- 23&#45;&gt;24 -->
<g id="edge44" class="edge">
<title>23&#45;&gt;24</title>
<path fill="none" stroke="black" d="M303.24,-578.87C311.05,-589.71 322.48,-602.8 336,-610 348.31,-616.55 363.17,-619.64 376.64,-620.98"/>
<polygon fill="black" stroke="black" points="376.29,-624.47 386.5,-621.65 376.76,-617.48 376.29,-624.47"/>
<text xml:space="preserve" text-anchor="middle" x="353.25" y="-621.71" font-family="Helvetica,Arial,sans-serif" font-size="14.00">noord</text>
</g>
<!-- 23&#45;&gt;22 -->
<g id="edge43" class="edge">
<title>23&#45;&gt;22</title>
<path fill="none" stroke="black" d="M317.68,-552.82C335.16,-547.26 358.55,-539.81 377.96,-533.63"/>
<polygon fill="black" stroke="black" points="378.94,-536.99 387.41,-530.62 376.82,-530.32 378.94,-536.99"/>
<text xml:space="preserve" text-anchor="middle" x="353.25" y="-547.84" font-family="Helvetica,Arial,sans-serif" font-size="14.00">west</text>
</g>
<!-- 24&#45;&gt;14 -->
<g id="edge46" class="edge">
<title>24&#45;&gt;14</title>
<path fill="none" stroke="black" d="M442.75,-623.71C467.54,-626.03 505.75,-629 539,-629 539,-629 539,-629 896.34,-629 932.5,-629 968.67,-607.03 992.23,-589.04"/>
<polygon fill="black" stroke="black" points="994.38,-591.8 1000.03,-582.84 990.03,-586.32 994.38,-591.8"/>
<text xml:space="preserve" text-anchor="middle" x="721.05" y="-630.7" font-family="Helvetica,Arial,sans-serif" font-size="14.00">uit</text>
</g>
<!-- 24&#45;&gt;23 -->
<g id="edge47" class="edge">
<title>24&#45;&gt;23</title>
<path fill="none" stroke="black" d="M397.11,-607.76C389.25,-602.14 379.68,-595.8 370.5,-591 357.27,-584.08 342.07,-577.9 328.59,-572.97"/>
<polygon fill="black" stroke="black" points="329.78,-569.68 319.18,-569.64 327.44,-576.28 329.78,-569.68"/>
<text xml:space="preserve" text-anchor="middle" x="353.25" y="-592.7" font-family="Helvetica,Arial,sans-serif" font-size="14.00">zuid</text>
</g>
<!-- 22&#45;&gt;21 -->
<g id="edge41" class="edge">
<title>22&#45;&gt;21</title>
<path fill="none" stroke="black" d="M434.42,-509.02C442.06,-504.25 451.33,-499.42 460.5,-497 474.86,-493.21 490.93,-495.21 504.78,-498.82"/>
<polygon fill="black" stroke="black" points="503.76,-502.17 514.35,-501.7 505.78,-495.47 503.76,-502.17"/>
<text xml:space="preserve" text-anchor="middle" x="477.75" y="-498.7" font-family="Helvetica,Arial,sans-serif" font-size="14.00">noord</text>
</g>
<!-- 22&#45;&gt;23 -->
<g id="edge42" class="edge">
<title>22&#45;&gt;23</title>
<path fill="none" stroke="black" d="M388.13,-515.74C372.44,-513.28 352.46,-512.41 336,-519 326.84,-522.67 318.51,-529.26 311.61,-536.14"/>
<polygon fill="black" stroke="black" points="309.42,-533.35 305.25,-543.09 314.58,-538.08 309.42,-533.35"/>
<text xml:space="preserve" text-anchor="middle" x="353.25" y="-520.7" font-family="Helvetica,Arial,sans-serif" font-size="14.00">oost</text>
</g>
<!-- 1&#45;&gt;17 -->
<g id="edge71" class="edge">
<title>1&#45;&gt;17</title>
<path fill="none" stroke="black" d="M868.13,-408.64C850.87,-420.27 828.25,-435.5 810.44,-447.48"/>
<polygon fill="black" stroke="black" points="808.71,-444.43 802.37,-452.92 812.62,-450.24 808.71,-444.43"/>
<text xml:space="preserve" text-anchor="middle" x="836.47" y="-439.74" font-family="Helvetica,Arial,sans-serif" font-size="14.00">ga</text>
</g>
<!-- 2 -->
<g id="node20" class="node">
<title>2</title>
<polygon fill="none" stroke="black" points="1325.84,-357 1271.84,-357 1271.84,-321 1325.84,-321 1325.84,-357"/>
<text xml:space="preserve" text-anchor="middle" x="1298.84" y="-333.2" font-family="Helvetica,Arial,sans-serif" font-size="14.00">2</text>
</g>
<!-- 1&#45;&gt;2 -->
<g id="edge1" class="edge">
<title>1&#45;&gt;2</title>
<path fill="none" stroke="black" d="M922.8,-391.11C982.67,-390.8 1132.77,-386.83 1253.84,-357 1256.25,-356.41 1258.7,-355.7 1261.15,-354.93"/>
<polygon fill="black" stroke="black" points="1262.07,-358.31 1270.31,-351.65 1259.72,-351.72 1262.07,-358.31"/>
<text xml:space="preserve" text-anchor="middle" x="1089.59" y="-386.6" font-family="Helvetica,Arial,sans-serif" font-size="14.00">west</text>
</g>
<!-- 4 -->
<g id="node22" class="node">
<title>4</title>
<polygon fill="none" stroke="black" points="1046.84,-334 992.84,-334 992.84,-298 1046.84,-298 1046.84,-334"/>
<text xml:space="preserve" text-anchor="middle" x="1019.84" y="-310.2" font-family="Helvetica,Arial,sans-serif" font-size="14.00">4</text>
</g>
<!-- 1&#45;&gt;4 -->
<g id="edge2" class="edge">
<title>1&#45;&gt;4</title>
<path fill="none" stroke="black" d="M902.66,-372.54C909.31,-356.22 921.45,-333.32 940.34,-322 952.53,-314.7 967.75,-312.34 981.54,-312.11"/>
<polygon fill="black" stroke="black" points="981.1,-315.6 991.18,-312.32 981.26,-308.6 981.1,-315.6"/>
<text xml:space="preserve" text-anchor="middle" x="957.59" y="-323.7" font-family="Helvetica,Arial,sans-serif" font-size="14.00">zuid</text>
</g>
<!-- 2&#45;&gt;1 -->
<g id="edge3" class="edge">
<title>2&#45;&gt;1</title>
<path fill="none" stroke="black" d="M1280.05,-357.5C1272.56,-364.28 1263.38,-371.41 1253.84,-376 1141.51,-430.07 1099.51,-404.55 974.84,-405 959.51,-405.05 955.49,-407.35 940.34,-405 938.14,-404.66 935.91,-404.23 933.66,-403.73"/>
<polygon fill="black" stroke="black" points="934.58,-400.35 924.01,-401.17 932.79,-407.12 934.58,-400.35"/>
<text xml:space="preserve" text-anchor="middle" x="1089.59" y="-412.33" font-family="Helvetica,Arial,sans-serif" font-size="14.00">oost</text>
</g>
<!-- 3 -->
<g id="node21" class="node">
<title>3</title>
<polygon fill="none" stroke="black" points="1186.34,-352 1132.34,-352 1132.34,-316 1186.34,-316 1186.34,-352"/>
<text xml:space="preserve" text-anchor="middle" x="1159.34" y="-328.2" font-family="Helvetica,Arial,sans-serif" font-size="14.00">3</text>
</g>
<!-- 2&#45;&gt;3 -->
<g id="edge4" class="edge">
<title>2&#45;&gt;3</title>
<path fill="none" stroke="black" d="M1271.64,-338.25C1252.9,-337.7 1227.06,-336.88 1204.34,-336 1202.17,-335.92 1199.93,-335.83 1197.67,-335.73"/>
<polygon fill="black" stroke="black" points="1198.05,-332.24 1187.91,-335.31 1197.75,-339.24 1198.05,-332.24"/>
<text xml:space="preserve" text-anchor="middle" x="1229.09" y="-339.38" font-family="Helvetica,Arial,sans-serif" font-size="14.00">zuid</text>
</g>
<!-- 2&#45;&gt;9 -->
<g id="edge5" class="edge">
<title>2&#45;&gt;9</title>
<path fill="none" stroke="black" d="M1326.17,-328.02C1341.49,-321.53 1361.11,-313.03 1378.34,-305 1380.76,-303.87 1383.24,-302.69 1385.74,-301.49"/>
<polygon fill="black" stroke="black" points="1387.13,-304.71 1394.57,-297.16 1384.05,-298.42 1387.13,-304.71"/>
<text xml:space="preserve" text-anchor="middle" x="1361.09" y="-322.05" font-family="Helvetica,Arial,sans-serif" font-size="14.00">noord</text>
</g>
<!-- 3&#45;&gt;2 -->
<g id="edge6" class="edge">
<title>3&#45;&gt;2</title>
<path fill="none" stroke="black" d="M1186.41,-322.12C1192.2,-320 1198.39,-318.11 1204.34,-317 1225.97,-312.97 1232.43,-311.95 1253.84,-317 1256.27,-317.57 1258.72,-318.3 1261.16,-319.15"/>
<polygon fill="black" stroke="black" points="1259.62,-322.3 1270.2,-322.86 1262.28,-315.82 1259.62,-322.3"/>
<text xml:space="preserve" text-anchor="middle" x="1229.09" y="-318.7" font-family="Helvetica,Arial,sans-serif" font-size="14.00">noord</text>
</g>
<!-- 3&#45;&gt;4 -->
<g id="edge7" class="edge">
<title>3&#45;&gt;4</title>
<path fill="none" stroke="black" d="M1131.86,-321.25C1126.21,-319.07 1120.17,-317.15 1114.34,-316 1096.23,-312.44 1075.75,-312.04 1058.59,-312.7"/>
<polygon fill="black" stroke="black" points="1058.61,-309.19 1048.81,-313.22 1058.99,-316.18 1058.61,-309.19"/>
<text xml:space="preserve" text-anchor="middle" x="1089.59" y="-317.7" font-family="Helvetica,Arial,sans-serif" font-size="14.00">oost</text>
</g>
<!-- 4&#45;&gt;1 -->
<g id="edge10" class="edge">
<title>4&#45;&gt;1</title>
<path fill="none" stroke="black" d="M992.47,-330.99C977.14,-339.82 957.51,-351.32 940.34,-362 937.74,-363.62 935.06,-365.31 932.37,-367.03"/>
<polygon fill="black" stroke="black" points="930.48,-364.09 923.99,-372.47 934.29,-369.96 930.48,-364.09"/>
<text xml:space="preserve" text-anchor="middle" x="957.59" y="-363.7" font-family="Helvetica,Arial,sans-serif" font-size="14.00">noord</text>
</g>
<!-- 4&#45;&gt;3 -->
<g id="edge8" class="edge">
<title>4&#45;&gt;3</title>
<path fill="none" stroke="black" d="M1047.03,-326.34C1052.81,-328.22 1058.97,-329.93 1064.84,-331 1083.02,-334.31 1103.5,-335.27 1120.65,-335.32"/>
<polygon fill="black" stroke="black" points="1120.44,-338.82 1130.41,-335.24 1120.38,-331.82 1120.44,-338.82"/>
<text xml:space="preserve" text-anchor="middle" x="1089.59" y="-336.94" font-family="Helvetica,Arial,sans-serif" font-size="14.00">west</text>
</g>
<!-- 5 -->
<g id="node23" class="node">
<title>5</title>
<polygon fill="none" stroke="black" points="1186.34,-178 1132.34,-178 1132.34,-142 1186.34,-142 1186.34,-178"/>
<text xml:space="preserve" text-anchor="middle" x="1159.34" y="-154.2" font-family="Helvetica,Arial,sans-serif" font-size="14.00">5</text>
</g>
<!-- 4&#45;&gt;5 -->
<g id="edge9" class="edge">
<title>4&#45;&gt;5</title>
<path fill="none" stroke="black" d="M1036.88,-297.8C1061.1,-270.32 1107.13,-218.11 1135.04,-186.43"/>
<polygon fill="black" stroke="black" points="1137.42,-189.04 1141.4,-179.22 1132.16,-184.41 1137.42,-189.04"/>
<text xml:space="preserve" text-anchor="middle" x="1089.59" y="-267.24" font-family="Helvetica,Arial,sans-serif" font-size="14.00">oost</text>
</g>
<!-- 5&#45;&gt;4 -->
<g id="edge11" class="edge">
<title>5&#45;&gt;4</title>
<path fill="none" stroke="black" d="M1132.1,-162.43C1111.33,-165.68 1082.9,-173.27 1064.84,-191 1038.84,-216.53 1028.17,-258.31 1023.82,-286.47"/>
<polygon fill="black" stroke="black" points="1020.38,-285.73 1022.51,-296.11 1027.32,-286.67 1020.38,-285.73"/>
<text xml:space="preserve" text-anchor="middle" x="1089.59" y="-192.7" font-family="Helvetica,Arial,sans-serif" font-size="14.00">west</text>
</g>
<!-- 28 -->
<g id="node33" class="node">
<title>28</title>
<ellipse fill="none" stroke="black" cx="1298.84" cy="-124" rx="20.15" ry="20.15"/>
<text xml:space="preserve" text-anchor="middle" x="1298.84" y="-118.2" font-family="Helvetica,Arial,sans-serif" font-size="14.00">28</text>
</g>
<!-- 5&#45;&gt;28 -->
<g id="edge72" class="edge">
<title>5&#45;&gt;28</title>
<path fill="none" stroke="black" d="M1186.71,-159.22C1205.76,-158.03 1231.89,-155.12 1253.84,-148 1259.84,-146.05 1265.97,-143.29 1271.68,-140.32"/>
<polygon fill="black" stroke="black" points="1273.04,-143.57 1280.05,-135.63 1269.62,-137.46 1273.04,-143.57"/>
<text xml:space="preserve" text-anchor="middle" x="1229.09" y="-159.24" font-family="Helvetica,Arial,sans-serif" font-size="14.00">boot</text>
</g>
<!-- 6 -->
<g id="node24" class="node">
<title>6</title>
<polygon fill="none" stroke="black" points="1574.84,-371 1520.84,-371 1520.84,-335 1574.84,-335 1574.84,-371"/>
<text xml:space="preserve" text-anchor="middle" x="1547.84" y="-347.2" font-family="Helvetica,Arial,sans-serif" font-size="14.00">6</text>
</g>
<!-- 7 -->
<g id="node25" class="node">
<title>7</title>
<polygon fill="none" stroke="black" points="1692.59,-371 1638.59,-371 1638.59,-335 1692.59,-335 1692.59,-371"/>
<text xml:space="preserve" text-anchor="middle" x="1665.59" y="-347.2" font-family="Helvetica,Arial,sans-serif" font-size="14.00">7</text>
</g>
<!-- 6&#45;&gt;7 -->
<g id="edge13" class="edge">
<title>6&#45;&gt;7</title>
<path fill="none" stroke="black" d="M1575.11,-353C1590.5,-353 1610.19,-353 1627.19,-353"/>
<polygon fill="black" stroke="black" points="1626.92,-356.5 1636.92,-353 1626.92,-349.5 1626.92,-356.5"/>
<text xml:space="preserve" text-anchor="middle" x="1606.72" y="-354.7" font-family="Helvetica,Arial,sans-serif" font-size="14.00">oost</text>
</g>
<!-- 6&#45;&gt;9 -->
<g id="edge12" class="edge">
<title>6&#45;&gt;9</title>
<path fill="none" stroke="black" d="M1520.61,-338.01C1503.1,-328 1479.84,-314.71 1460.57,-303.7"/>
<polygon fill="black" stroke="black" points="1462.36,-300.69 1451.94,-298.77 1458.88,-306.77 1462.36,-300.69"/>
<text xml:space="preserve" text-anchor="middle" x="1485.59" y="-328.03" font-family="Helvetica,Arial,sans-serif" font-size="14.00">zuid</text>
</g>
<!-- 7&#45;&gt;6 -->
<g id="edge14" class="edge">
<title>7&#45;&gt;6</title>
<path fill="none" stroke="black" d="M1638.17,-339.54C1632.51,-337.25 1626.46,-335.21 1620.59,-334 1608.51,-331.5 1604.92,-331.5 1592.84,-334 1590.55,-334.47 1588.23,-335.07 1585.92,-335.76"/>
<polygon fill="black" stroke="black" points="1584.95,-332.39 1576.69,-339.04 1587.29,-338.99 1584.95,-332.39"/>
<text xml:space="preserve" text-anchor="middle" x="1606.72" y="-335.7" font-family="Helvetica,Arial,sans-serif" font-size="14.00">west</text>
</g>
<!-- 7&#45;&gt;8 -->
<g id="edge15" class="edge">
<title>7&#45;&gt;8</title>
<path fill="none" stroke="black" d="M1692.86,-353C1708.25,-353 1727.94,-353 1744.94,-353"/>
<polygon fill="black" stroke="black" points="1744.67,-356.5 1754.67,-353 1744.67,-349.5 1744.67,-356.5"/>
<text xml:space="preserve" text-anchor="middle" x="1724.47" y="-354.7" font-family="Helvetica,Arial,sans-serif" font-size="14.00">oost</text>
</g>
<!-- 8&#45;&gt;34 -->
<g id="edge73" class="edge">
<title>8&#45;&gt;34</title>
<path fill="none" stroke="black" d="M1810.67,-353C1832.52,-353 1863.77,-353 1887.7,-353"/>
<polygon fill="black" stroke="black" points="1887.61,-356.5 1897.61,-353 1887.61,-349.5 1887.61,-356.5"/>
<text xml:space="preserve" text-anchor="middle" x="1853.47" y="-354.7" font-family="Helvetica,Arial,sans-serif" font-size="14.00">in ballon</text>
</g>
<!-- 8&#45;&gt;7 -->
<g id="edge16" class="edge">
<title>8&#45;&gt;7</title>
<path fill="none" stroke="black" d="M1755.92,-339.54C1750.26,-337.25 1744.21,-335.21 1738.34,-334 1726.26,-331.5 1722.67,-331.5 1710.59,-334 1708.3,-334.47 1705.98,-335.07 1703.67,-335.76"/>
<polygon fill="black" stroke="black" points="1702.7,-332.39 1694.44,-339.04 1705.04,-338.99 1702.7,-332.39"/>
<text xml:space="preserve" text-anchor="middle" x="1724.47" y="-335.7" font-family="Helvetica,Arial,sans-serif" font-size="14.00">west</text>
</g>
<!-- 9&#45;&gt;12 -->
<g id="edge70" class="edge">
<title>9&#45;&gt;12</title>
<path fill="none" stroke="black" d="M1406.51,-264.75C1384.91,-241.98 1343.8,-206 1299.84,-206 660.65,-206 660.65,-206 660.65,-206 621.8,-206 585.85,-235.36 563.71,-258.28"/>
<polygon fill="black" stroke="black" points="561.18,-255.86 556.95,-265.57 566.31,-260.62 561.18,-255.86"/>
<text xml:space="preserve" text-anchor="middle" x="957.59" y="-207.7" font-family="Helvetica,Arial,sans-serif" font-size="14.00">ga</text>
</g>
<!-- 9&#45;&gt;2 -->
<g id="edge17" class="edge">
<title>9&#45;&gt;2</title>
<path fill="none" stroke="black" d="M1395.93,-278.8C1380.05,-277.5 1359.87,-278.1 1343.84,-286 1332.66,-291.51 1323.29,-301.33 1316.11,-311.02"/>
<polygon fill="black" stroke="black" points="1313.24,-309.02 1310.52,-319.26 1319.03,-312.95 1313.24,-309.02"/>
<text xml:space="preserve" text-anchor="middle" x="1361.09" y="-287.7" font-family="Helvetica,Arial,sans-serif" font-size="14.00">zuid</text>
</g>
<!-- 9&#45;&gt;6 -->
<g id="edge18" class="edge">
<title>9&#45;&gt;6</title>
<path fill="none" stroke="black" d="M1432.07,-301.25C1439.23,-315.72 1451.35,-335.1 1468.34,-345 1480.43,-352.04 1495.36,-354.74 1508.94,-355.44"/>
<polygon fill="black" stroke="black" points="1508.87,-358.94 1518.92,-355.57 1508.96,-351.94 1508.87,-358.94"/>
<text xml:space="preserve" text-anchor="middle" x="1485.59" y="-356.47" font-family="Helvetica,Arial,sans-serif" font-size="14.00">noord</text>
</g>
<!-- 10 -->
<g id="node28" class="node">
<title>10</title>
<polygon fill="none" stroke="black" points="1574.84,-306 1520.84,-306 1520.84,-270 1574.84,-270 1574.84,-306"/>
<text xml:space="preserve" text-anchor="middle" x="1547.84" y="-282.2" font-family="Helvetica,Arial,sans-serif" font-size="14.00">10</text>
</g>
<!-- 9&#45;&gt;10 -->
<g id="edge68" class="edge">
<title>9&#45;&gt;10</title>
<path fill="none" stroke="black" d="M1450.62,-284.07C1467.74,-284.77 1490.33,-285.69 1509.33,-286.47"/>
<polygon fill="black" stroke="black" points="1508.96,-289.96 1519.09,-286.87 1509.25,-282.96 1508.96,-289.96"/>
<text xml:space="preserve" text-anchor="middle" x="1485.59" y="-287.79" font-family="Helvetica,Arial,sans-serif" font-size="14.00">ga</text>
</g>
<!-- 11 -->
<g id="node29" class="node">
<title>11</title>
<polygon fill="none" stroke="black" points="1574.84,-225 1520.84,-225 1520.84,-189 1574.84,-189 1574.84,-225"/>
<text xml:space="preserve" text-anchor="middle" x="1547.84" y="-201.2" font-family="Helvetica,Arial,sans-serif" font-size="14.00">11</text>
</g>
<!-- 9&#45;&gt;11 -->
<g id="edge69" class="edge">
<title>9&#45;&gt;11</title>
<path fill="none" stroke="black" d="M1442.65,-264.66C1450.21,-257.67 1459.31,-249.96 1468.34,-244 1481.25,-235.49 1496.41,-227.86 1509.96,-221.77"/>
<polygon fill="black" stroke="black" points="1511.24,-225.03 1519.01,-217.84 1508.44,-218.62 1511.24,-225.03"/>
<text xml:space="preserve" text-anchor="middle" x="1485.59" y="-245.7" font-family="Helvetica,Arial,sans-serif" font-size="14.00">ga</text>
</g>
<!-- 10&#45;&gt;9 -->
<g id="edge19" class="edge">
<title>10&#45;&gt;9</title>
<path fill="none" stroke="black" d="M1520.67,-271.73C1514.99,-268.95 1508.87,-266.48 1502.84,-265 1487.95,-261.34 1483.39,-262.04 1468.34,-265 1466.16,-265.43 1463.94,-265.97 1461.73,-266.59"/>
<polygon fill="black" stroke="black" points="1460.63,-263.27 1452.26,-269.77 1462.85,-269.91 1460.63,-263.27"/>
<text xml:space="preserve" text-anchor="middle" x="1485.59" y="-266.7" font-family="Helvetica,Arial,sans-serif" font-size="14.00">uit</text>
</g>
<!-- 11&#45;&gt;9 -->
<g id="edge20" class="edge">
<title>11&#45;&gt;9</title>
<path fill="none" stroke="black" d="M1520.39,-191.45C1504.3,-184.19 1483.92,-179.09 1468.34,-189 1446.18,-203.1 1434.99,-231.63 1429.46,-253.58"/>
<polygon fill="black" stroke="black" points="1426.08,-252.65 1427.33,-263.17 1432.91,-254.17 1426.08,-252.65"/>
<text xml:space="preserve" text-anchor="middle" x="1485.59" y="-190.7" font-family="Helvetica,Arial,sans-serif" font-size="14.00">uit</text>
</g>
<!-- 33 -->
<g id="node30" class="node">
<title>33</title>
<polygon fill="none" stroke="black" points="1046.84,-36 992.84,-36 992.84,0 1046.84,0 1046.84,-36"/>
<text xml:space="preserve" text-anchor="middle" x="1019.84" y="-12.2" font-family="Helvetica,Arial,sans-serif" font-size="14.00">33</text>
</g>
<!-- 32 -->
<g id="node37" class="node">
<title>32</title>
<ellipse fill="none" stroke="black" cx="895.34" cy="-46" rx="20.15" ry="20.15"/>
<text xml:space="preserve" text-anchor="middle" x="895.34" y="-40.2" font-family="Helvetica,Arial,sans-serif" font-size="14.00">32</text>
</g>
<!-- 33&#45;&gt;32 -->
<g id="edge64" class="edge">
<title>33&#45;&gt;32</title>
<path fill="none" stroke="black" d="M992.7,-9.74C977.1,-6.17 957.12,-4.01 940.34,-10 932.16,-12.92 924.41,-18.09 917.75,-23.61"/>
<polygon fill="black" stroke="black" points="915.58,-20.85 910.54,-30.17 920.29,-26.03 915.58,-20.85"/>
<text xml:space="preserve" text-anchor="middle" x="957.59" y="-11.7" font-family="Helvetica,Arial,sans-serif" font-size="14.00">oost</text>
</g>
<!-- 37 -->
<g id="node32" class="node">
<title>37</title>
<polygon fill="none" stroke="black" points="2114.09,-317 2060.09,-317 2060.09,-281 2114.09,-281 2114.09,-317"/>
<text xml:space="preserve" text-anchor="middle" x="2087.09" y="-293.2" font-family="Helvetica,Arial,sans-serif" font-size="14.00">37</text>
</g>
<!-- 37&#45;&gt;36 -->
<g id="edge67" class="edge">
<title>37&#45;&gt;36</title>
<path fill="none" stroke="black" d="M2114.55,-302.69C2124.54,-304.18 2135.99,-306.03 2146.34,-308 2148.48,-308.41 2150.67,-308.84 2152.87,-309.3"/>
<polygon fill="black" stroke="black" points="2151.89,-312.67 2162.4,-311.35 2153.36,-305.82 2151.89,-312.67"/>
<text xml:space="preserve" text-anchor="middle" x="2139.22" y="-309.7" font-family="Helvetica,Arial,sans-serif" font-size="14.00">uit</text>
</g>
<!-- 28&#45;&gt;5 -->
<g id="edge55" class="edge">
<title>28&#45;&gt;5</title>
<path fill="none" stroke="black" d="M1278.33,-123.35C1259.04,-123.29 1228.93,-124.77 1204.34,-133 1201.49,-133.95 1198.64,-135.12 1195.82,-136.43"/>
<polygon fill="black" stroke="black" points="1194.46,-133.19 1187.24,-140.95 1197.72,-139.39 1194.46,-133.19"/>
<text xml:space="preserve" text-anchor="middle" x="1229.09" y="-134.7" font-family="Helvetica,Arial,sans-serif" font-size="14.00">uit</text>
</g>
<!-- 29 -->
<g id="node34" class="node">
<title>29</title>
<ellipse fill="none" stroke="black" cx="1423.34" cy="-86" rx="20.15" ry="20.15"/>
<text xml:space="preserve" text-anchor="middle" x="1423.34" y="-80.2" font-family="Helvetica,Arial,sans-serif" font-size="14.00">29</text>
</g>
<!-- 28&#45;&gt;29 -->
<g id="edge56" class="edge">
<title>28&#45;&gt;29</title>
<path fill="none" stroke="black" d="M1312.49,-109.22C1320.52,-100.99 1331.68,-91.52 1343.84,-87 1358.96,-81.38 1376.88,-80.74 1391.78,-81.68"/>
<polygon fill="black" stroke="black" points="1391.18,-85.14 1401.46,-82.57 1391.82,-78.17 1391.18,-85.14"/>
<text xml:space="preserve" text-anchor="middle" x="1361.09" y="-88.7" font-family="Helvetica,Arial,sans-serif" font-size="14.00">zuid</text>
</g>
<!-- 29&#45;&gt;28 -->
<g id="edge57" class="edge">
<title>29&#45;&gt;28</title>
<path fill="none" stroke="black" d="M1404.04,-93.01C1396.18,-95.92 1386.85,-99.26 1378.34,-102 1362.39,-107.13 1344.41,-112.22 1329.69,-116.21"/>
<polygon fill="black" stroke="black" points="1328.9,-112.79 1320.14,-118.76 1330.7,-119.56 1328.9,-112.79"/>
<text xml:space="preserve" text-anchor="middle" x="1361.09" y="-113.94" font-family="Helvetica,Arial,sans-serif" font-size="14.00">noord</text>
</g>
<!-- 30 -->
<g id="node35" class="node">
<title>30</title>
<ellipse fill="none" stroke="black" cx="1159.34" cy="-99" rx="20.15" ry="20.15"/>
<text xml:space="preserve" text-anchor="middle" x="1159.34" y="-93.2" font-family="Helvetica,Arial,sans-serif" font-size="14.00">30</text>
</g>
<!-- 30&#45;&gt;28 -->
<g id="edge58" class="edge">
<title>30&#45;&gt;28</title>
<path fill="none" stroke="black" d="M1179.42,-94.58C1198.64,-90.96 1228.94,-87.53 1253.84,-95 1260.86,-97.1 1267.79,-100.73 1274,-104.72"/>
<polygon fill="black" stroke="black" points="1271.66,-107.35 1281.85,-110.24 1275.69,-101.62 1271.66,-107.35"/>
<text xml:space="preserve" text-anchor="middle" x="1229.09" y="-96.7" font-family="Helvetica,Arial,sans-serif" font-size="14.00">uit</text>
</g>
<!-- 31 -->
<g id="node36" class="node">
<title>31</title>
<ellipse fill="none" stroke="black" cx="1019.84" cy="-84" rx="20.15" ry="20.15"/>
<text xml:space="preserve" text-anchor="middle" x="1019.84" y="-78.2" font-family="Helvetica,Arial,sans-serif" font-size="14.00">31</text>
</g>
<!-- 30&#45;&gt;31 -->
<g id="edge59" class="edge">
<title>30&#45;&gt;31</title>
<path fill="none" stroke="black" d="M1140.23,-91.9C1132.4,-89.18 1123.05,-86.4 1114.34,-85 1093.67,-81.68 1070.09,-81.45 1051.78,-82.04"/>
<polygon fill="black" stroke="black" points="1051.68,-78.54 1041.84,-82.47 1051.98,-85.53 1051.68,-78.54"/>
<text xml:space="preserve" text-anchor="middle" x="1089.59" y="-86.7" font-family="Helvetica,Arial,sans-serif" font-size="14.00">zuid</text>
</g>
<!-- 31&#45;&gt;29 -->
<g id="edge60" class="edge">
<title>31&#45;&gt;29</title>
<path fill="none" stroke="black" d="M1040.11,-80.8C1062.28,-77.29 1099.82,-71.92 1132.34,-70 1241.53,-63.55 1269.76,-63.8 1378.34,-77 1382.91,-77.56 1387.72,-78.33 1392.4,-79.2"/>
<polygon fill="black" stroke="black" points="1391.63,-82.62 1402.13,-81.17 1393.02,-75.76 1391.63,-82.62"/>
<text xml:space="preserve" text-anchor="middle" x="1229.09" y="-68.07" font-family="Helvetica,Arial,sans-serif" font-size="14.00">omhoog</text>
</g>
<!-- 31&#45;&gt;30 -->
<g id="edge61" class="edge">
<title>31&#45;&gt;30</title>
<path fill="none" stroke="black" d="M1038.44,-91.99C1046.33,-95.16 1055.88,-98.42 1064.84,-100 1085.47,-103.63 1109.04,-103.35 1127.36,-102.18"/>
<polygon fill="black" stroke="black" points="1127.63,-105.67 1137.32,-101.4 1127.08,-98.69 1127.63,-105.67"/>
<text xml:space="preserve" text-anchor="middle" x="1089.59" y="-104.66" font-family="Helvetica,Arial,sans-serif" font-size="14.00">noord</text>
</g>
<!-- 32&#45;&gt;33 -->
<g id="edge63" class="edge">
<title>32&#45;&gt;33</title>
<path fill="none" stroke="black" d="M915.48,-41.62C933.05,-37.61 959.58,-31.55 981.36,-26.57"/>
<polygon fill="black" stroke="black" points="982.12,-29.98 991.09,-24.34 980.56,-23.16 982.12,-29.98"/>
<text xml:space="preserve" text-anchor="middle" x="957.59" y="-37.03" font-family="Helvetica,Arial,sans-serif" font-size="14.00">west</text>
</g>
<!-- 32&#45;&gt;31 -->
<g id="edge62" class="edge">
<title>32&#45;&gt;31</title>
<path fill="none" stroke="black" d="M914.95,-51.77C934.64,-57.88 966.02,-67.61 989.15,-74.79"/>
<polygon fill="black" stroke="black" points="988.03,-78.11 998.62,-77.73 990.1,-71.42 988.03,-78.11"/>
<text xml:space="preserve" text-anchor="middle" x="957.59" y="-71.22" font-family="Helvetica,Arial,sans-serif" font-size="14.00">oost</text>
</g>
</g>
</svg>
